<svg fill="none" height="164" viewBox="0 0 330 164" width="330" xmlns="http://www.w3.org/2000/svg"><path d="m0 0h330v164h-330z" fill="#10162f"/><path d="m78 27h24v97h-24z" fill="#fff0e5"/><path d="m104 76h24v48h-24z" fill="#fff0e5"/><path d="m130 52s1 1 3 1 2-1 4-1 3 1 5 1 3-1 5-1 2.5 1 4 1 3-1 3-1v48h-24z" fill="#66c4ff"/><path d="m182 76s1 1 3 1 2-1 4-1 3 1 5 1 3-1 5-1 2.5 1 4 1 3-1 3-1v48h-24z" fill="#66c4ff"/><path d="m104 52s1 .5 3 .5 2-.5 4-.5 3 .5 5 .5 3-.5 5-.5 2.5.5 4 .5 3-.5 3-.5v24h-24z" fill="#66c4ff"/><path d="m208 76s1 .5 3 .5 2-.5 4-.5 3 .5 5 .5 3-.5 5-.5 2.5.5 4 .5 3-.5 3-.5v24h-24z" fill="#66c4ff"/><path d="m130 100h24v24h-24z" fill="#fff0e5"/><path d="m156 52h24v72h-24z" fill="#fff0e5"/><path d="m208 100h24v24h-24z" fill="#fff0e5"/><path d="m234 76h24v48h-24z" fill="#fff0e5"/><path d="m62 123.5h212" stroke="#c3c5cb"/><path d="m62 99.5h16" stroke="#c3c5cb"/><path d="m62 75.5h16" stroke="#c3c5cb"/><path d="m62 51.5h16" stroke="#c3c5cb"/><path d="m62 27.5h16" stroke="#c3c5cb"/><path d="m50.22 127.13c1.83 0 2.54-1.54 2.54-3.79s-.71-3.72-2.54-3.72-2.53 1.47-2.53 3.72.7 3.79 2.53 3.79zm-1.6-3.79c0-1.98.51-2.94 1.6-2.94.87 0 1.38.62 1.54 1.88l-3.13 1.43c-.01-.12-.01-.24-.01-.37zm1.6 3c-.86 0-1.36-.63-1.53-1.87l3.13-1.45c.01.11.01.21.01.32 0 1.98-.52 3-1.61 3z" fill="#c3c5cb"/><path d="m90.85 132.99v3.36h-2.46zm2.13 3.36h-1.21v-4.6h-.93l-3.41 4.6v.86h3.42v1.79h.92v-1.79h1.21z" fill="#c3c5cb"/><path d="m116.34 131.62c-1.47 0-2.43 1.05-2.41 2.43h.94c.02-1.19.71-1.65 1.46-1.65.82 0 1.25.54 1.25 1.29 0 1.27-1.35 2.63-3.78 4.52v.79h4.89v-.79h-3.6c1.85-1.48 3.47-2.96 3.47-4.64 0-1.23-.95-1.95-2.22-1.95z" fill="#c3c5cb"/><path d="m142.27 131.75c-.37.79-.96.92-2.17.95v.63h1.85v4.88h-1.85v.79h4.29v-.79h-1.52v-6.46z" fill="#c3c5cb"/><path d="m168.2 138.34c-.97 0-1.47-.62-1.57-1.5h-.93c.09 1.18.88 2.29 2.49 2.29 1.28 0 2.54-.73 2.54-2.17 0-.74-.29-1.48-1.31-1.83.73-.3 1.13-.94 1.13-1.68 0-1.32-1.12-1.83-2.29-1.83-1.42 0-2.36.9-2.46 2.18h.94c.07-.81.57-1.4 1.49-1.4.74 0 1.34.41 1.34 1.14 0 .84-.64 1.23-1.83 1.23h-.11v.81h.14c1.11 0 1.98.37 1.98 1.39 0 .86-.63 1.37-1.55 1.37z" fill="#c3c5cb"/><path d="m194.22 139.13c1.83 0 2.54-1.54 2.54-3.79s-.71-3.72-2.54-3.72-2.53 1.47-2.53 3.72.7 3.79 2.53 3.79zm-1.6-3.79c0-1.98.51-2.94 1.6-2.94.87 0 1.38.62 1.54 1.88l-3.13 1.43c-.01-.12-.01-.24-.01-.37zm1.6 3c-.86 0-1.36-.63-1.53-1.87l3.13-1.45c.01.11.01.21.01.32 0 1.98-.52 3-1.61 3z" fill="#c3c5cb"/><path d="m220.27 131.75c-.37.79-.96.92-2.17.95v.63h1.85v4.88h-1.85v.79h4.29v-.79h-1.52v-6.46z" fill="#c3c5cb"/><path d="m246.34 131.62c-1.47 0-2.43 1.05-2.41 2.43h.94c.02-1.19.71-1.65 1.46-1.65.82 0 1.25.54 1.25 1.29 0 1.27-1.35 2.63-3.78 4.52v.79h4.89v-.79h-3.6c1.85-1.48 3.47-2.96 3.47-4.64 0-1.23-.95-1.95-2.22-1.95z" fill="#c3c5cb"/><path d="m50.27 95.75c-.37.79-.96.92-2.17.95v.63h1.85v4.88h-1.85v.79h4.29v-.79h-1.52v-6.46z" fill="#c3c5cb"/><path d="m116.27 59.75c-.37.79-.96.92-2.17.95v.63h1.85v4.88h-1.85v.79h4.29v-.79h-1.52v-6.46z" fill="#10162f"/><path d="m142.34 71.62c-1.47 0-2.43 1.05-2.41 2.43h.94c.02-1.19.71-1.65 1.46-1.65.82 0 1.25.54 1.25 1.29 0 1.27-1.35 2.63-3.78 4.52v.79h4.89v-.79h-3.6c1.85-1.48 3.47-2.96 3.47-4.64 0-1.23-.95-1.95-2.22-1.95z" fill="#10162f"/><path d="m194.34 95.62c-1.47 0-2.43 1.05-2.41 2.43h.94c.02-1.19.71-1.65 1.46-1.65.82 0 1.25.54 1.25 1.29 0 1.27-1.35 2.63-3.78 4.52v.79h4.89v-.79h-3.6c1.85-1.48 3.47-2.96 3.47-4.64 0-1.23-.95-1.95-2.22-1.95z" fill="#10162f"/><path d="m220.27 83.75c-.37.79-.96.92-2.17.95v.63h1.85v4.88h-1.85v.79h4.29v-.79h-1.52v-6.46z" fill="#10162f"/><path d="m50.34 71.62c-1.47 0-2.43 1.05-2.41 2.43h.94c.02-1.19.71-1.65 1.46-1.65.82 0 1.25.54 1.25 1.29 0 1.27-1.35 2.63-3.78 4.52v.79h4.89v-.79h-3.6c1.85-1.48 3.47-2.96 3.47-4.64 0-1.23-.95-1.95-2.22-1.95z" fill="#c3c5cb"/><path d="m50.2 54.34c-.97 0-1.47-.62-1.57-1.5h-.93c.09 1.18.88 2.29 2.49 2.29 1.28 0 2.54-.73 2.54-2.17 0-.74-.29-1.48-1.31-1.83.73-.3 1.13-.94 1.13-1.68 0-1.32-1.12-1.83-2.29-1.83-1.42 0-2.36.9-2.46 2.18h.94c.07-.81.57-1.4 1.49-1.4.74 0 1.34.41 1.34 1.14 0 .84-.64 1.23-1.83 1.23h-.11v.81h.14c1.11 0 1.98.37 1.98 1.39 0 .86-.63 1.37-1.55 1.37z" fill="#c3c5cb"/><path d="m50.85 24.99v3.36h-2.46zm2.13 3.36h-1.21v-4.6h-.93l-3.41 4.6v.86h3.42v1.79h.92v-1.79h1.21z" fill="#c3c5cb"/><g fill="#66c4ff"><circle cx="137" cy="58" r="1.5" stroke="#fff"/><circle cx="192" cy="116" r="1.5" stroke="#fff"/><circle cx="137" cy="93" r="1.5" stroke="#fff"/><circle cx="228" cy="93" r="1.5" stroke="#fff"/><circle cx="147" cy="86" r="1.5" stroke="#fff"/><circle cx="213" cy="82" r="1.5" stroke="#fff"/><circle cx="134" cy="68" r="1.5" stroke="#fff"/><circle cx="187" cy="93" r="1.5" stroke="#fff"/><circle cx="200" cy="84" r="1.5" stroke="#fff"/><circle cx="108" cy="72" r="1.5" stroke="#fff"/><circle cx="148" cy="62" r="1.5" stroke="#fff"/><circle cx="122" cy="58" r="1.5" stroke="#fff"/></g></svg>